<?xml version="1.0" encoding="utf-8" standalone="no"?>
<!DOCTYPE svg PUBLIC "-//W3C//DTD SVG 1.1//EN"
  "http://www.w3.org/Graphics/SVG/1.1/DTD/svg11.dtd">
<svg xmlns:xlink="http://www.w3.org/1999/xlink" width="748.098125pt" height="454.717657pt" viewBox="0 0 748.098125 454.717657" xmlns="http://www.w3.org/2000/svg" version="1.1">
 <metadata>
  <rdf:RDF xmlns:dc="http://purl.org/dc/elements/1.1/" xmlns:cc="http://creativecommons.org/ns#" xmlns:rdf="http://www.w3.org/1999/02/22-rdf-syntax-ns#">
   <cc:Work>
    <dc:type rdf:resource="http://purl.org/dc/dcmitype/StillImage"/>
    <dc:date>2026-05-13T16:54:48.640655</dc:date>
    <dc:format>image/svg+xml</dc:format>
    <dc:creator>
     <cc:Agent>
      <dc:title>Matplotlib v3.10.8, https://matplotlib.org/</dc:title>
     </cc:Agent>
    </dc:creator>
   </cc:Work>
  </rdf:RDF>
 </metadata>
 <defs>
  <style type="text/css">*{stroke-linejoin: round; stroke-linecap: butt}</style>
 </defs>
 <g id="figure_1">
  <g id="patch_1">
   <path d="M 0 454.717657 
L 748.098125 454.717657 
L 748.098125 0 
L 0 0 
z
" style="fill: #ffffff"/>
  </g>
  <g id="axes_1">
   <g id="patch_2">
    <path d="M 71.298125 365.595937 
L 740.898125 365.595937 
L 740.898125 32.955938 
L 71.298125 32.955938 
z
" style="fill: #ffffff"/>
   </g>
   <g id="patch_3">
    <path d="M 101.734489 365.595937 
L 129.093018 365.595937 
L 129.093018 205.244174 
L 101.734489 205.244174 
z
" clip-path="url(#pa442c6b809)" style="fill: #1f77b4; opacity: 0.8"/>
   </g>
   <g id="patch_4">
    <path d="M 135.93265 365.595937 
L 163.291179 365.595937 
L 163.291179 201.918298 
L 135.93265 201.918298 
z
" clip-path="url(#pa442c6b809)" style="fill: #aec7e8; opacity: 0.8"/>
   </g>
   <g id="patch_5">
    <path d="M 170.130811 365.595937 
L 197.489341 365.595937 
L 197.489341 174.681378 
L 170.130811 174.681378 
z
" clip-path="url(#pa442c6b809)" style="fill: #ff7f0e; opacity: 0.8"/>
   </g>
   <g id="patch_6">
    <path d="M 204.328973 365.595937 
L 231.687502 365.595937 
L 231.687502 170.365936 
L 204.328973 170.365936 
z
" clip-path="url(#pa442c6b809)" style="fill: #ffbb78; opacity: 0.8"/>
   </g>
   <g id="patch_7">
    <path d="M 238.527134 365.595937 
L 265.885663 365.595937 
L 265.885663 143.49922 
L 238.527134 143.49922 
z
" clip-path="url(#pa442c6b809)" style="fill: #2ca02c; opacity: 0.8"/>
   </g>
   <g id="patch_8">
    <path d="M 272.725296 365.595937 
L 300.083825 365.595937 
L 300.083825 139.602952 
L 272.725296 139.602952 
z
" clip-path="url(#pa442c6b809)" style="fill: #98df8a; opacity: 0.8"/>
   </g>
   <g id="patch_9">
    <path d="M 306.923457 365.595937 
L 334.281986 365.595937 
L 334.281986 114.344216 
L 306.923457 114.344216 
z
" clip-path="url(#pa442c6b809)" style="fill: #ff9896; opacity: 0.8"/>
   </g>
   <g id="patch_10">
    <path d="M 341.121618 365.595937 
L 368.480147 365.595937 
L 368.480147 111.203689 
L 341.121618 111.203689 
z
" clip-path="url(#pa442c6b809)" style="fill: #9467bd; opacity: 0.8"/>
   </g>
   <g id="patch_11">
    <path d="M 375.31978 365.595937 
L 402.678309 365.595937 
L 402.678309 89.452264 
L 375.31978 89.452264 
z
" clip-path="url(#pa442c6b809)" style="fill: #c5b0d5; opacity: 0.8"/>
   </g>
   <g id="patch_12">
    <path d="M 409.517941 365.595937 
L 436.87647 365.595937 
L 436.87647 87.305216 
L 409.517941 87.305216 
z
" clip-path="url(#pa442c6b809)" style="fill: #8c564b; opacity: 0.8"/>
   </g>
   <g id="patch_13">
    <path d="M 443.716103 365.595937 
L 471.074632 365.595937 
L 471.074632 71.043218 
L 443.716103 71.043218 
z
" clip-path="url(#pa442c6b809)" style="fill: #c49c94; opacity: 0.8"/>
   </g>
   <g id="patch_14">
    <path d="M 477.914264 365.595937 
L 505.272793 365.595937 
L 505.272793 69.807794 
L 477.914264 69.807794 
z
" clip-path="url(#pa442c6b809)" style="fill: #e377c2; opacity: 0.8"/>
   </g>
   <g id="patch_15">
    <path d="M 512.112425 365.595937 
L 539.470954 365.595937 
L 539.470954 59.304962 
L 512.112425 59.304962 
z
" clip-path="url(#pa442c6b809)" style="fill: #7f7f7f; opacity: 0.8"/>
   </g>
   <g id="patch_16">
    <path d="M 546.310587 365.595937 
L 573.669116 365.595937 
L 573.669116 58.717282 
L 546.310587 58.717282 
z
" clip-path="url(#pa442c6b809)" style="fill: #c7c7c7; opacity: 0.8"/>
   </g>
   <g id="patch_17">
    <path d="M 580.508748 365.595937 
L 607.867277 365.595937 
L 607.867277 52.60216 
L 580.508748 52.60216 
z
" clip-path="url(#pa442c6b809)" style="fill: #bcbd22; opacity: 0.8"/>
   </g>
   <g id="patch_18">
    <path d="M 614.706909 365.595937 
L 642.065439 365.595937 
L 642.065439 52.308571 
L 614.706909 52.308571 
z
" clip-path="url(#pa442c6b809)" style="fill: #dbdb8d; opacity: 0.8"/>
   </g>
   <g id="patch_19">
    <path d="M 648.905071 365.595937 
L 676.2636 365.595937 
L 676.2636 48.934303 
L 648.905071 48.934303 
z
" clip-path="url(#pa442c6b809)" style="fill: #17becf; opacity: 0.8"/>
   </g>
   <g id="patch_20">
    <path d="M 683.103232 365.595937 
L 710.461761 365.595937 
L 710.461761 48.795938 
L 683.103232 48.795938 
z
" clip-path="url(#pa442c6b809)" style="fill: #9edae5; opacity: 0.8"/>
   </g>
   <g id="matplotlib.axis_1">
    <g id="xtick_1">
     <g id="line2d_1">
      <defs>
       <path id="m372a9a3b16" d="M 0 0 
L 0 3.5 
" style="stroke: #000000; stroke-width: 0.8"/>
      </defs>
      <g>
       <use xlink:href="#m372a9a3b16" x="115.413753" y="365.595937" style="stroke: #000000; stroke-width: 0.8"/>
      </g>
     </g>
     <g id="text_1">
      <!-- bpe_1k -->
      <g transform="translate(95.747125 428.270653) rotate(-45) scale(0.18 -0.18)">
       <defs>
        <path id="DejaVuSerif-62" d="M 738 331 
L 738 4531 
L 184 4531 
L 184 4863 
L 1313 4863 
L 1313 2803 
Q 1481 3116 1742 3264 
Q 2003 3413 2388 3413 
Q 3000 3413 3387 2928 
Q 3775 2444 3775 1663 
Q 3775 881 3387 395 
Q 3000 -91 2388 -91 
Q 2003 -91 1742 57 
Q 1481 206 1313 519 
L 1313 0 
L 184 0 
L 184 331 
L 738 331 
z
M 1313 1497 
Q 1313 897 1542 583 
Q 1772 269 2209 269 
Q 2650 269 2876 622 
Q 3103 975 3103 1663 
Q 3103 2353 2876 2703 
Q 2650 3053 2209 3053 
Q 1772 3053 1542 2737 
Q 1313 2422 1313 1825 
L 1313 1497 
z
" transform="scale(0.015625)"/>
        <path id="DejaVuSerif-70" d="M 1313 1825 
L 1313 1497 
Q 1313 897 1542 583 
Q 1772 269 2209 269 
Q 2650 269 2876 622 
Q 3103 975 3103 1663 
Q 3103 2353 2876 2703 
Q 2650 3053 2209 3053 
Q 1772 3053 1542 2737 
Q 1313 2422 1313 1825 
z
M 738 2988 
L 184 2988 
L 184 3322 
L 1313 3322 
L 1313 2803 
Q 1481 3116 1742 3264 
Q 2003 3413 2388 3413 
Q 3000 3413 3387 2928 
Q 3775 2444 3775 1663 
Q 3775 881 3387 395 
Q 3000 -91 2388 -91 
Q 2003 -91 1742 57 
Q 1481 206 1313 519 
L 1313 -997 
L 1856 -997 
L 1856 -1331 
L 184 -1331 
L 184 -997 
L 738 -997 
L 738 2988 
z
" transform="scale(0.015625)"/>
        <path id="DejaVuSerif-65" d="M 3469 1600 
L 991 1600 
L 991 1575 
Q 991 903 1244 561 
Q 1497 219 1991 219 
Q 2369 219 2611 417 
Q 2853 616 2950 1006 
L 3413 1006 
Q 3275 459 2904 184 
Q 2534 -91 1931 -91 
Q 1203 -91 761 389 
Q 319 869 319 1663 
Q 319 2450 753 2931 
Q 1188 3413 1894 3413 
Q 2647 3413 3050 2948 
Q 3453 2484 3469 1600 
z
M 2791 1931 
Q 2772 2513 2545 2808 
Q 2319 3103 1894 3103 
Q 1497 3103 1269 2806 
Q 1041 2509 991 1931 
L 2791 1931 
z
" transform="scale(0.015625)"/>
        <path id="DejaVuSerif-5f" d="M 3200 -1259 
L 3200 -1509 
L 0 -1509 
L 0 -1259 
L 3200 -1259 
z
" transform="scale(0.015625)"/>
        <path id="DejaVuSerif-31" d="M 909 0 
L 909 331 
L 1722 331 
L 1722 4213 
L 781 3603 
L 781 4013 
L 1919 4750 
L 2350 4750 
L 2350 331 
L 3163 331 
L 3163 0 
L 909 0 
z
" transform="scale(0.015625)"/>
        <path id="DejaVuSerif-6b" d="M 1831 0 
L 219 0 
L 219 331 
L 738 331 
L 738 4531 
L 184 4531 
L 184 4863 
L 1313 4863 
L 1313 1697 
L 2713 2988 
L 2234 2988 
L 2234 3322 
L 3738 3322 
L 3738 2988 
L 3169 2988 
L 2181 2075 
L 3444 331 
L 3922 331 
L 3922 0 
L 2284 0 
L 2284 331 
L 2759 331 
L 1766 1697 
L 1313 1275 
L 1313 331 
L 1831 331 
L 1831 0 
z
" transform="scale(0.015625)"/>
       </defs>
       <use xlink:href="#DejaVuSerif-62"/>
       <use xlink:href="#DejaVuSerif-70" transform="translate(64.013672 0)"/>
       <use xlink:href="#DejaVuSerif-65" transform="translate(128.027344 0)"/>
       <use xlink:href="#DejaVuSerif-5f" transform="translate(187.207031 0)"/>
       <use xlink:href="#DejaVuSerif-31" transform="translate(237.207031 0)"/>
       <use xlink:href="#DejaVuSerif-6b" transform="translate(300.830078 0)"/>
      </g>
     </g>
    </g>
    <g id="xtick_2">
     <g id="line2d_2">
      <g>
       <use xlink:href="#m372a9a3b16" x="149.611915" y="365.595937" style="stroke: #000000; stroke-width: 0.8"/>
      </g>
     </g>
     <g id="text_2">
      <!-- bne_1k -->
      <g transform="translate(129.920427 428.320371) rotate(-45) scale(0.18 -0.18)">
       <defs>
        <path id="DejaVuSerif-6e" d="M 263 0 
L 263 331 
L 781 331 
L 781 2988 
L 231 2988 
L 231 3322 
L 1356 3322 
L 1356 2731 
Q 1516 3069 1770 3241 
Q 2025 3413 2363 3413 
Q 2913 3413 3172 3097 
Q 3431 2781 3431 2113 
L 3431 331 
L 3944 331 
L 3944 0 
L 2356 0 
L 2356 331 
L 2853 331 
L 2853 1931 
Q 2853 2541 2703 2767 
Q 2553 2994 2175 2994 
Q 1775 2994 1565 2701 
Q 1356 2409 1356 1850 
L 1356 331 
L 1856 331 
L 1856 0 
L 263 0 
z
" transform="scale(0.015625)"/>
       </defs>
       <use xlink:href="#DejaVuSerif-62"/>
       <use xlink:href="#DejaVuSerif-6e" transform="translate(64.013672 0)"/>
       <use xlink:href="#DejaVuSerif-65" transform="translate(128.417969 0)"/>
       <use xlink:href="#DejaVuSerif-5f" transform="translate(187.597656 0)"/>
       <use xlink:href="#DejaVuSerif-31" transform="translate(237.597656 0)"/>
       <use xlink:href="#DejaVuSerif-6b" transform="translate(301.220703 0)"/>
      </g>
     </g>
    </g>
    <g id="xtick_3">
     <g id="line2d_3">
      <g>
       <use xlink:href="#m372a9a3b16" x="183.810076" y="365.595937" style="stroke: #000000; stroke-width: 0.8"/>
      </g>
     </g>
     <g id="text_3">
      <!-- bpe_2k -->
      <g transform="translate(164.143448 428.270653) rotate(-45) scale(0.18 -0.18)">
       <defs>
        <path id="DejaVuSerif-32" d="M 819 3553 
L 469 3553 
L 469 4384 
Q 803 4563 1142 4656 
Q 1481 4750 1806 4750 
Q 2534 4750 2956 4397 
Q 3378 4044 3378 3438 
Q 3378 2753 2422 1800 
Q 2347 1728 2309 1691 
L 1131 513 
L 3078 513 
L 3078 1088 
L 3444 1088 
L 3444 0 
L 434 0 
L 434 341 
L 1850 1753 
Q 2319 2222 2519 2614 
Q 2719 3006 2719 3438 
Q 2719 3909 2473 4175 
Q 2228 4441 1797 4441 
Q 1350 4441 1106 4219 
Q 863 3997 819 3553 
z
" transform="scale(0.015625)"/>
       </defs>
       <use xlink:href="#DejaVuSerif-62"/>
       <use xlink:href="#DejaVuSerif-70" transform="translate(64.013672 0)"/>
       <use xlink:href="#DejaVuSerif-65" transform="translate(128.027344 0)"/>
       <use xlink:href="#DejaVuSerif-5f" transform="translate(187.207031 0)"/>
       <use xlink:href="#DejaVuSerif-32" transform="translate(237.207031 0)"/>
       <use xlink:href="#DejaVuSerif-6b" transform="translate(300.830078 0)"/>
      </g>
     </g>
    </g>
    <g id="xtick_4">
     <g id="line2d_4">
      <g>
       <use xlink:href="#m372a9a3b16" x="218.008237" y="365.595937" style="stroke: #000000; stroke-width: 0.8"/>
      </g>
     </g>
     <g id="text_4">
      <!-- bne_2k -->
      <g transform="translate(198.31675 428.320371) rotate(-45) scale(0.18 -0.18)">
       <use xlink:href="#DejaVuSerif-62"/>
       <use xlink:href="#DejaVuSerif-6e" transform="translate(64.013672 0)"/>
       <use xlink:href="#DejaVuSerif-65" transform="translate(128.417969 0)"/>
       <use xlink:href="#DejaVuSerif-5f" transform="translate(187.597656 0)"/>
       <use xlink:href="#DejaVuSerif-32" transform="translate(237.597656 0)"/>
       <use xlink:href="#DejaVuSerif-6b" transform="translate(301.220703 0)"/>
      </g>
     </g>
    </g>
    <g id="xtick_5">
     <g id="line2d_5">
      <g>
       <use xlink:href="#m372a9a3b16" x="252.206399" y="365.595937" style="stroke: #000000; stroke-width: 0.8"/>
      </g>
     </g>
     <g id="text_5">
      <!-- bpe_4k -->
      <g transform="translate(232.53977 428.270653) rotate(-45) scale(0.18 -0.18)">
       <defs>
        <path id="DejaVuSerif-34" d="M 2234 1581 
L 2234 4063 
L 641 1581 
L 2234 1581 
z
M 3609 0 
L 1484 0 
L 1484 331 
L 2234 331 
L 2234 1247 
L 197 1247 
L 197 1588 
L 2241 4750 
L 2859 4750 
L 2859 1581 
L 3750 1581 
L 3750 1247 
L 2859 1247 
L 2859 331 
L 3609 331 
L 3609 0 
z
" transform="scale(0.015625)"/>
       </defs>
       <use xlink:href="#DejaVuSerif-62"/>
       <use xlink:href="#DejaVuSerif-70" transform="translate(64.013672 0)"/>
       <use xlink:href="#DejaVuSerif-65" transform="translate(128.027344 0)"/>
       <use xlink:href="#DejaVuSerif-5f" transform="translate(187.207031 0)"/>
       <use xlink:href="#DejaVuSerif-34" transform="translate(237.207031 0)"/>
       <use xlink:href="#DejaVuSerif-6b" transform="translate(300.830078 0)"/>
      </g>
     </g>
    </g>
    <g id="xtick_6">
     <g id="line2d_6">
      <g>
       <use xlink:href="#m372a9a3b16" x="286.40456" y="365.595937" style="stroke: #000000; stroke-width: 0.8"/>
      </g>
     </g>
     <g id="text_6">
      <!-- bne_4k -->
      <g transform="translate(266.713073 428.320371) rotate(-45) scale(0.18 -0.18)">
       <use xlink:href="#DejaVuSerif-62"/>
       <use xlink:href="#DejaVuSerif-6e" transform="translate(64.013672 0)"/>
       <use xlink:href="#DejaVuSerif-65" transform="translate(128.417969 0)"/>
       <use xlink:href="#DejaVuSerif-5f" transform="translate(187.597656 0)"/>
       <use xlink:href="#DejaVuSerif-34" transform="translate(237.597656 0)"/>
       <use xlink:href="#DejaVuSerif-6b" transform="translate(301.220703 0)"/>
      </g>
     </g>
    </g>
    <g id="xtick_7">
     <g id="line2d_7">
      <g>
       <use xlink:href="#m372a9a3b16" x="320.602722" y="365.595937" style="stroke: #000000; stroke-width: 0.8"/>
      </g>
     </g>
     <g id="text_7">
      <!-- bpe_8k -->
      <g transform="translate(300.936093 428.270653) rotate(-45) scale(0.18 -0.18)">
       <defs>
        <path id="DejaVuSerif-38" d="M 2981 1275 
Q 2981 1775 2732 2051 
Q 2484 2328 2034 2328 
Q 1584 2328 1336 2051 
Q 1088 1775 1088 1275 
Q 1088 772 1336 495 
Q 1584 219 2034 219 
Q 2484 219 2732 495 
Q 2981 772 2981 1275 
z
M 2853 3541 
Q 2853 3966 2637 4203 
Q 2422 4441 2034 4441 
Q 1650 4441 1433 4203 
Q 1216 3966 1216 3541 
Q 1216 3113 1433 2875 
Q 1650 2638 2034 2638 
Q 2422 2638 2637 2875 
Q 2853 3113 2853 3541 
z
M 2516 2484 
Q 3047 2413 3344 2092 
Q 3641 1772 3641 1275 
Q 3641 619 3225 264 
Q 2809 -91 2034 -91 
Q 1263 -91 845 264 
Q 428 619 428 1275 
Q 428 1772 725 2092 
Q 1022 2413 1556 2484 
Q 1084 2569 832 2842 
Q 581 3116 581 3541 
Q 581 4103 968 4426 
Q 1356 4750 2034 4750 
Q 2713 4750 3100 4426 
Q 3488 4103 3488 3541 
Q 3488 3116 3236 2842 
Q 2984 2569 2516 2484 
z
" transform="scale(0.015625)"/>
       </defs>
       <use xlink:href="#DejaVuSerif-62"/>
       <use xlink:href="#DejaVuSerif-70" transform="translate(64.013672 0)"/>
       <use xlink:href="#DejaVuSerif-65" transform="translate(128.027344 0)"/>
       <use xlink:href="#DejaVuSerif-5f" transform="translate(187.207031 0)"/>
       <use xlink:href="#DejaVuSerif-38" transform="translate(237.207031 0)"/>
       <use xlink:href="#DejaVuSerif-6b" transform="translate(300.830078 0)"/>
      </g>
     </g>
    </g>
    <g id="xtick_8">
     <g id="line2d_8">
      <g>
       <use xlink:href="#m372a9a3b16" x="354.800883" y="365.595937" style="stroke: #000000; stroke-width: 0.8"/>
      </g>
     </g>
     <g id="text_8">
      <!-- bne_8k -->
      <g transform="translate(335.109395 428.320371) rotate(-45) scale(0.18 -0.18)">
       <use xlink:href="#DejaVuSerif-62"/>
       <use xlink:href="#DejaVuSerif-6e" transform="translate(64.013672 0)"/>
       <use xlink:href="#DejaVuSerif-65" transform="translate(128.417969 0)"/>
       <use xlink:href="#DejaVuSerif-5f" transform="translate(187.597656 0)"/>
       <use xlink:href="#DejaVuSerif-38" transform="translate(237.597656 0)"/>
       <use xlink:href="#DejaVuSerif-6b" transform="translate(301.220703 0)"/>
      </g>
     </g>
    </g>
    <g id="xtick_9">
     <g id="line2d_9">
      <g>
       <use xlink:href="#m372a9a3b16" x="388.999044" y="365.595937" style="stroke: #000000; stroke-width: 0.8"/>
      </g>
     </g>
     <g id="text_9">
      <!-- bpe_16k -->
      <g transform="translate(365.283346 436.368793) rotate(-45) scale(0.18 -0.18)">
       <defs>
        <path id="DejaVuSerif-36" d="M 2094 219 
Q 2534 219 2771 542 
Q 3009 866 3009 1472 
Q 3009 2078 2771 2401 
Q 2534 2725 2094 2725 
Q 1647 2725 1412 2412 
Q 1178 2100 1178 1509 
Q 1178 888 1415 553 
Q 1653 219 2094 219 
z
M 1075 2569 
Q 1288 2803 1556 2918 
Q 1825 3034 2163 3034 
Q 2859 3034 3264 2615 
Q 3669 2197 3669 1472 
Q 3669 763 3233 336 
Q 2797 -91 2069 -91 
Q 1278 -91 853 498 
Q 428 1088 428 2181 
Q 428 3406 931 4078 
Q 1434 4750 2350 4750 
Q 2597 4750 2869 4703 
Q 3141 4656 3425 4563 
L 3425 3794 
L 3072 3794 
Q 3034 4109 2831 4275 
Q 2628 4441 2284 4441 
Q 1678 4441 1381 3981 
Q 1084 3522 1075 2569 
z
" transform="scale(0.015625)"/>
       </defs>
       <use xlink:href="#DejaVuSerif-62"/>
       <use xlink:href="#DejaVuSerif-70" transform="translate(64.013672 0)"/>
       <use xlink:href="#DejaVuSerif-65" transform="translate(128.027344 0)"/>
       <use xlink:href="#DejaVuSerif-5f" transform="translate(187.207031 0)"/>
       <use xlink:href="#DejaVuSerif-31" transform="translate(237.207031 0)"/>
       <use xlink:href="#DejaVuSerif-36" transform="translate(300.830078 0)"/>
       <use xlink:href="#DejaVuSerif-6b" transform="translate(364.453125 0)"/>
      </g>
     </g>
    </g>
    <g id="xtick_10">
     <g id="line2d_10">
      <g>
       <use xlink:href="#m372a9a3b16" x="423.197206" y="365.595937" style="stroke: #000000; stroke-width: 0.8"/>
      </g>
     </g>
     <g id="text_10">
      <!-- bne_16k -->
      <g transform="translate(399.456648 436.418512) rotate(-45) scale(0.18 -0.18)">
       <use xlink:href="#DejaVuSerif-62"/>
       <use xlink:href="#DejaVuSerif-6e" transform="translate(64.013672 0)"/>
       <use xlink:href="#DejaVuSerif-65" transform="translate(128.417969 0)"/>
       <use xlink:href="#DejaVuSerif-5f" transform="translate(187.597656 0)"/>
       <use xlink:href="#DejaVuSerif-31" transform="translate(237.597656 0)"/>
       <use xlink:href="#DejaVuSerif-36" transform="translate(301.220703 0)"/>
       <use xlink:href="#DejaVuSerif-6b" transform="translate(364.84375 0)"/>
      </g>
     </g>
    </g>
    <g id="xtick_11">
     <g id="line2d_11">
      <g>
       <use xlink:href="#m372a9a3b16" x="457.395367" y="365.595937" style="stroke: #000000; stroke-width: 0.8"/>
      </g>
     </g>
     <g id="text_11">
      <!-- bpe_32k -->
      <g transform="translate(433.679669 436.368793) rotate(-45) scale(0.18 -0.18)">
       <defs>
        <path id="DejaVuSerif-33" d="M 622 4469 
Q 988 4606 1323 4678 
Q 1659 4750 1953 4750 
Q 2638 4750 3022 4454 
Q 3406 4159 3406 3634 
Q 3406 3213 3140 2930 
Q 2875 2647 2388 2547 
Q 2963 2466 3280 2130 
Q 3597 1794 3597 1259 
Q 3597 606 3158 257 
Q 2719 -91 1894 -91 
Q 1528 -91 1179 -12 
Q 831 66 488 225 
L 488 1131 
L 838 1131 
Q 869 681 1141 450 
Q 1413 219 1906 219 
Q 2384 219 2661 495 
Q 2938 772 2938 1253 
Q 2938 1803 2653 2086 
Q 2369 2369 1819 2369 
L 1522 2369 
L 1522 2688 
L 1678 2688 
Q 2225 2688 2498 2914 
Q 2772 3141 2772 3597 
Q 2772 4006 2547 4223 
Q 2322 4441 1900 4441 
Q 1478 4441 1245 4241 
Q 1013 4041 972 3647 
L 622 3647 
L 622 4469 
z
" transform="scale(0.015625)"/>
       </defs>
       <use xlink:href="#DejaVuSerif-62"/>
       <use xlink:href="#DejaVuSerif-70" transform="translate(64.013672 0)"/>
       <use xlink:href="#DejaVuSerif-65" transform="translate(128.027344 0)"/>
       <use xlink:href="#DejaVuSerif-5f" transform="translate(187.207031 0)"/>
       <use xlink:href="#DejaVuSerif-33" transform="translate(237.207031 0)"/>
       <use xlink:href="#DejaVuSerif-32" transform="translate(300.830078 0)"/>
       <use xlink:href="#DejaVuSerif-6b" transform="translate(364.453125 0)"/>
      </g>
     </g>
    </g>
    <g id="xtick_12">
     <g id="line2d_12">
      <g>
       <use xlink:href="#m372a9a3b16" x="491.593528" y="365.595937" style="stroke: #000000; stroke-width: 0.8"/>
      </g>
     </g>
     <g id="text_12">
      <!-- bne_32k -->
      <g transform="translate(467.852971 436.418512) rotate(-45) scale(0.18 -0.18)">
       <use xlink:href="#DejaVuSerif-62"/>
       <use xlink:href="#DejaVuSerif-6e" transform="translate(64.013672 0)"/>
       <use xlink:href="#DejaVuSerif-65" transform="translate(128.417969 0)"/>
       <use xlink:href="#DejaVuSerif-5f" transform="translate(187.597656 0)"/>
       <use xlink:href="#DejaVuSerif-33" transform="translate(237.597656 0)"/>
       <use xlink:href="#DejaVuSerif-32" transform="translate(301.220703 0)"/>
       <use xlink:href="#DejaVuSerif-6b" transform="translate(364.84375 0)"/>
      </g>
     </g>
    </g>
    <g id="xtick_13">
     <g id="line2d_13">
      <g>
       <use xlink:href="#m372a9a3b16" x="525.79169" y="365.595937" style="stroke: #000000; stroke-width: 0.8"/>
      </g>
     </g>
     <g id="text_13">
      <!-- bpe_64k -->
      <g transform="translate(502.075991 436.368793) rotate(-45) scale(0.18 -0.18)">
       <use xlink:href="#DejaVuSerif-62"/>
       <use xlink:href="#DejaVuSerif-70" transform="translate(64.013672 0)"/>
       <use xlink:href="#DejaVuSerif-65" transform="translate(128.027344 0)"/>
       <use xlink:href="#DejaVuSerif-5f" transform="translate(187.207031 0)"/>
       <use xlink:href="#DejaVuSerif-36" transform="translate(237.207031 0)"/>
       <use xlink:href="#DejaVuSerif-34" transform="translate(300.830078 0)"/>
       <use xlink:href="#DejaVuSerif-6b" transform="translate(364.453125 0)"/>
      </g>
     </g>
    </g>
    <g id="xtick_14">
     <g id="line2d_14">
      <g>
       <use xlink:href="#m372a9a3b16" x="559.989851" y="365.595937" style="stroke: #000000; stroke-width: 0.8"/>
      </g>
     </g>
     <g id="text_14">
      <!-- bne_64k -->
      <g transform="translate(536.249294 436.418512) rotate(-45) scale(0.18 -0.18)">
       <use xlink:href="#DejaVuSerif-62"/>
       <use xlink:href="#DejaVuSerif-6e" transform="translate(64.013672 0)"/>
       <use xlink:href="#DejaVuSerif-65" transform="translate(128.417969 0)"/>
       <use xlink:href="#DejaVuSerif-5f" transform="translate(187.597656 0)"/>
       <use xlink:href="#DejaVuSerif-36" transform="translate(237.597656 0)"/>
       <use xlink:href="#DejaVuSerif-34" transform="translate(301.220703 0)"/>
       <use xlink:href="#DejaVuSerif-6b" transform="translate(364.84375 0)"/>
      </g>
     </g>
    </g>
    <g id="xtick_15">
     <g id="line2d_15">
      <g>
       <use xlink:href="#m372a9a3b16" x="594.188013" y="365.595937" style="stroke: #000000; stroke-width: 0.8"/>
      </g>
     </g>
     <g id="text_15">
      <!-- bpe_128k -->
      <g transform="translate(566.423244 444.466934) rotate(-45) scale(0.18 -0.18)">
       <use xlink:href="#DejaVuSerif-62"/>
       <use xlink:href="#DejaVuSerif-70" transform="translate(64.013672 0)"/>
       <use xlink:href="#DejaVuSerif-65" transform="translate(128.027344 0)"/>
       <use xlink:href="#DejaVuSerif-5f" transform="translate(187.207031 0)"/>
       <use xlink:href="#DejaVuSerif-31" transform="translate(237.207031 0)"/>
       <use xlink:href="#DejaVuSerif-32" transform="translate(300.830078 0)"/>
       <use xlink:href="#DejaVuSerif-38" transform="translate(364.453125 0)"/>
       <use xlink:href="#DejaVuSerif-6b" transform="translate(428.076172 0)"/>
      </g>
     </g>
    </g>
    <g id="xtick_16">
     <g id="line2d_16">
      <g>
       <use xlink:href="#m372a9a3b16" x="628.386174" y="365.595937" style="stroke: #000000; stroke-width: 0.8"/>
      </g>
     </g>
     <g id="text_16">
      <!-- bne_128k -->
      <g transform="translate(600.596546 444.516652) rotate(-45) scale(0.18 -0.18)">
       <use xlink:href="#DejaVuSerif-62"/>
       <use xlink:href="#DejaVuSerif-6e" transform="translate(64.013672 0)"/>
       <use xlink:href="#DejaVuSerif-65" transform="translate(128.417969 0)"/>
       <use xlink:href="#DejaVuSerif-5f" transform="translate(187.597656 0)"/>
       <use xlink:href="#DejaVuSerif-31" transform="translate(237.597656 0)"/>
       <use xlink:href="#DejaVuSerif-32" transform="translate(301.220703 0)"/>
       <use xlink:href="#DejaVuSerif-38" transform="translate(364.84375 0)"/>
       <use xlink:href="#DejaVuSerif-6b" transform="translate(428.466797 0)"/>
      </g>
     </g>
    </g>
    <g id="xtick_17">
     <g id="line2d_17">
      <g>
       <use xlink:href="#m372a9a3b16" x="662.584335" y="365.595937" style="stroke: #000000; stroke-width: 0.8"/>
      </g>
     </g>
     <g id="text_17">
      <!-- bpe_256k -->
      <g transform="translate(634.819567 444.466934) rotate(-45) scale(0.18 -0.18)">
       <defs>
        <path id="DejaVuSerif-35" d="M 3219 4666 
L 3219 4153 
L 1081 4153 
L 1081 2816 
Q 1244 2928 1461 2984 
Q 1678 3041 1947 3041 
Q 2703 3041 3140 2622 
Q 3578 2203 3578 1478 
Q 3578 738 3136 323 
Q 2694 -91 1894 -91 
Q 1572 -91 1234 -12 
Q 897 66 544 225 
L 544 1131 
L 897 1131 
Q 925 688 1179 453 
Q 1434 219 1894 219 
Q 2388 219 2653 544 
Q 2919 869 2919 1478 
Q 2919 2084 2655 2407 
Q 2391 2731 1894 2731 
Q 1613 2731 1398 2631 
Q 1184 2531 1019 2322 
L 750 2322 
L 750 4666 
L 3219 4666 
z
" transform="scale(0.015625)"/>
       </defs>
       <use xlink:href="#DejaVuSerif-62"/>
       <use xlink:href="#DejaVuSerif-70" transform="translate(64.013672 0)"/>
       <use xlink:href="#DejaVuSerif-65" transform="translate(128.027344 0)"/>
       <use xlink:href="#DejaVuSerif-5f" transform="translate(187.207031 0)"/>
       <use xlink:href="#DejaVuSerif-32" transform="translate(237.207031 0)"/>
       <use xlink:href="#DejaVuSerif-35" transform="translate(300.830078 0)"/>
       <use xlink:href="#DejaVuSerif-36" transform="translate(364.453125 0)"/>
       <use xlink:href="#DejaVuSerif-6b" transform="translate(428.076172 0)"/>
      </g>
     </g>
    </g>
    <g id="xtick_18">
     <g id="line2d_18">
      <g>
       <use xlink:href="#m372a9a3b16" x="696.782497" y="365.595937" style="stroke: #000000; stroke-width: 0.8"/>
      </g>
     </g>
     <g id="text_18">
      <!-- bne_256k -->
      <g transform="translate(668.992869 444.516652) rotate(-45) scale(0.18 -0.18)">
       <use xlink:href="#DejaVuSerif-62"/>
       <use xlink:href="#DejaVuSerif-6e" transform="translate(64.013672 0)"/>
       <use xlink:href="#DejaVuSerif-65" transform="translate(128.417969 0)"/>
       <use xlink:href="#DejaVuSerif-5f" transform="translate(187.597656 0)"/>
       <use xlink:href="#DejaVuSerif-32" transform="translate(237.597656 0)"/>
       <use xlink:href="#DejaVuSerif-35" transform="translate(301.220703 0)"/>
       <use xlink:href="#DejaVuSerif-36" transform="translate(364.84375 0)"/>
       <use xlink:href="#DejaVuSerif-6b" transform="translate(428.466797 0)"/>
      </g>
     </g>
    </g>
   </g>
   <g id="matplotlib.axis_2">
    <g id="ytick_1">
     <g id="line2d_19">
      <defs>
       <path id="m67c647d431" d="M 0 0 
L -3.5 0 
" style="stroke: #000000; stroke-width: 0.8"/>
      </defs>
      <g>
       <use xlink:href="#m67c647d431" x="71.298125" y="365.595937" style="stroke: #000000; stroke-width: 0.8"/>
      </g>
     </g>
     <g id="text_19">
      <!-- 0.0 -->
      <g transform="translate(32.491875 373.194375) scale(0.2 -0.2)">
       <defs>
        <path id="DejaVuSerif-30" d="M 2034 219 
Q 2513 219 2750 744 
Q 2988 1269 2988 2328 
Q 2988 3391 2750 3916 
Q 2513 4441 2034 4441 
Q 1556 4441 1318 3916 
Q 1081 3391 1081 2328 
Q 1081 1269 1318 744 
Q 1556 219 2034 219 
z
M 2034 -91 
Q 1275 -91 848 546 
Q 422 1184 422 2328 
Q 422 3475 848 4112 
Q 1275 4750 2034 4750 
Q 2797 4750 3222 4112 
Q 3647 3475 3647 2328 
Q 3647 1184 3222 546 
Q 2797 -91 2034 -91 
z
" transform="scale(0.015625)"/>
        <path id="DejaVuSerif-2e" d="M 603 325 
Q 603 500 722 622 
Q 841 744 1019 744 
Q 1191 744 1312 622 
Q 1434 500 1434 325 
Q 1434 153 1312 31 
Q 1191 -91 1019 -91 
Q 841 -91 722 29 
Q 603 150 603 325 
z
" transform="scale(0.015625)"/>
       </defs>
       <use xlink:href="#DejaVuSerif-30"/>
       <use xlink:href="#DejaVuSerif-2e" transform="translate(63.623047 0)"/>
       <use xlink:href="#DejaVuSerif-30" transform="translate(95.410156 0)"/>
      </g>
     </g>
    </g>
    <g id="ytick_2">
     <g id="line2d_20">
      <g>
       <use xlink:href="#m67c647d431" x="71.298125" y="300.633315" style="stroke: #000000; stroke-width: 0.8"/>
      </g>
     </g>
     <g id="text_20">
      <!-- 0.2 -->
      <g transform="translate(32.491875 308.231752) scale(0.2 -0.2)">
       <use xlink:href="#DejaVuSerif-30"/>
       <use xlink:href="#DejaVuSerif-2e" transform="translate(63.623047 0)"/>
       <use xlink:href="#DejaVuSerif-32" transform="translate(95.410156 0)"/>
      </g>
     </g>
    </g>
    <g id="ytick_3">
     <g id="line2d_21">
      <g>
       <use xlink:href="#m67c647d431" x="71.298125" y="235.670692" style="stroke: #000000; stroke-width: 0.8"/>
      </g>
     </g>
     <g id="text_21">
      <!-- 0.4 -->
      <g transform="translate(32.491875 243.26913) scale(0.2 -0.2)">
       <use xlink:href="#DejaVuSerif-30"/>
       <use xlink:href="#DejaVuSerif-2e" transform="translate(63.623047 0)"/>
       <use xlink:href="#DejaVuSerif-34" transform="translate(95.410156 0)"/>
      </g>
     </g>
    </g>
    <g id="ytick_4">
     <g id="line2d_22">
      <g>
       <use xlink:href="#m67c647d431" x="71.298125" y="170.70807" style="stroke: #000000; stroke-width: 0.8"/>
      </g>
     </g>
     <g id="text_22">
      <!-- 0.6 -->
      <g transform="translate(32.491875 178.306507) scale(0.2 -0.2)">
       <use xlink:href="#DejaVuSerif-30"/>
       <use xlink:href="#DejaVuSerif-2e" transform="translate(63.623047 0)"/>
       <use xlink:href="#DejaVuSerif-36" transform="translate(95.410156 0)"/>
      </g>
     </g>
    </g>
    <g id="ytick_5">
     <g id="line2d_23">
      <g>
       <use xlink:href="#m67c647d431" x="71.298125" y="105.745447" style="stroke: #000000; stroke-width: 0.8"/>
      </g>
     </g>
     <g id="text_23">
      <!-- 0.8 -->
      <g transform="translate(32.491875 113.343885) scale(0.2 -0.2)">
       <use xlink:href="#DejaVuSerif-30"/>
       <use xlink:href="#DejaVuSerif-2e" transform="translate(63.623047 0)"/>
       <use xlink:href="#DejaVuSerif-38" transform="translate(95.410156 0)"/>
      </g>
     </g>
    </g>
    <g id="ytick_6">
     <g id="line2d_24">
      <g>
       <use xlink:href="#m67c647d431" x="71.298125" y="40.782825" style="stroke: #000000; stroke-width: 0.8"/>
      </g>
     </g>
     <g id="text_24">
      <!-- 1.0 -->
      <g transform="translate(32.491875 48.381262) scale(0.2 -0.2)">
       <use xlink:href="#DejaVuSerif-31"/>
       <use xlink:href="#DejaVuSerif-2e" transform="translate(63.623047 0)"/>
       <use xlink:href="#DejaVuSerif-30" transform="translate(95.410156 0)"/>
      </g>
     </g>
    </g>
    <g id="text_25">
     <!-- Per Word Compression Rate -->
     <g transform="translate(23.916563 356.7375) rotate(-90) scale(0.22 -0.22)">
      <defs>
       <path id="DejaVuSerif-50" d="M 1581 2375 
L 2406 2375 
Q 2872 2375 3115 2626 
Q 3359 2878 3359 3353 
Q 3359 3831 3115 4081 
Q 2872 4331 2406 4331 
L 1581 4331 
L 1581 2375 
z
M 353 0 
L 353 331 
L 947 331 
L 947 4331 
L 353 4331 
L 353 4666 
L 2559 4666 
Q 3259 4666 3668 4311 
Q 4078 3956 4078 3353 
Q 4078 2753 3668 2397 
Q 3259 2041 2559 2041 
L 1581 2041 
L 1581 331 
L 2303 331 
L 2303 0 
L 353 0 
z
" transform="scale(0.015625)"/>
       <path id="DejaVuSerif-72" d="M 3059 3328 
L 3059 2497 
L 2728 2497 
Q 2713 2744 2591 2866 
Q 2469 2988 2234 2988 
Q 1809 2988 1582 2694 
Q 1356 2400 1356 1850 
L 1356 331 
L 2022 331 
L 2022 0 
L 263 0 
L 263 331 
L 781 331 
L 781 2994 
L 231 2994 
L 231 3322 
L 1356 3322 
L 1356 2731 
Q 1525 3078 1790 3245 
Q 2056 3413 2438 3413 
Q 2578 3413 2733 3391 
Q 2888 3369 3059 3328 
z
" transform="scale(0.015625)"/>
       <path id="DejaVuSerif-20" transform="scale(0.015625)"/>
       <path id="DejaVuSerif-57" d="M 4878 0 
L 4366 0 
L 3297 3794 
L 2228 0 
L 1716 0 
L 494 4331 
L 31 4331 
L 31 4666 
L 1734 4666 
L 1734 4331 
L 1153 4331 
L 2125 884 
L 3188 4666 
L 3694 4666 
L 4775 844 
L 5753 4331 
L 5216 4331 
L 5216 4666 
L 6559 4666 
L 6559 4331 
L 6100 4331 
L 4878 0 
z
" transform="scale(0.015625)"/>
       <path id="DejaVuSerif-6f" d="M 1925 219 
Q 2388 219 2623 584 
Q 2859 950 2859 1663 
Q 2859 2375 2623 2739 
Q 2388 3103 1925 3103 
Q 1463 3103 1227 2739 
Q 991 2375 991 1663 
Q 991 950 1228 584 
Q 1466 219 1925 219 
z
M 1925 -91 
Q 1200 -91 759 389 
Q 319 869 319 1663 
Q 319 2456 758 2934 
Q 1197 3413 1925 3413 
Q 2653 3413 3092 2934 
Q 3531 2456 3531 1663 
Q 3531 869 3092 389 
Q 2653 -91 1925 -91 
z
" transform="scale(0.015625)"/>
       <path id="DejaVuSerif-64" d="M 3359 331 
L 3909 331 
L 3909 0 
L 2784 0 
L 2784 519 
Q 2616 206 2355 57 
Q 2094 -91 1709 -91 
Q 1097 -91 708 395 
Q 319 881 319 1663 
Q 319 2444 706 2928 
Q 1094 3413 1709 3413 
Q 2094 3413 2355 3264 
Q 2616 3116 2784 2803 
L 2784 4531 
L 2241 4531 
L 2241 4863 
L 3359 4863 
L 3359 331 
z
M 2784 1497 
L 2784 1825 
Q 2784 2422 2554 2737 
Q 2325 3053 1888 3053 
Q 1444 3053 1217 2703 
Q 991 2353 991 1663 
Q 991 975 1217 622 
Q 1444 269 1888 269 
Q 2325 269 2554 583 
Q 2784 897 2784 1497 
z
" transform="scale(0.015625)"/>
       <path id="DejaVuSerif-43" d="M 4513 1234 
Q 4306 581 3820 245 
Q 3334 -91 2591 -91 
Q 2134 -91 1743 65 
Q 1353 222 1050 525 
Q 700 875 529 1320 
Q 359 1766 359 2328 
Q 359 3416 987 4083 
Q 1616 4750 2644 4750 
Q 3025 4750 3456 4650 
Q 3888 4550 4384 4347 
L 4384 3272 
L 4031 3272 
Q 3916 3859 3567 4137 
Q 3219 4416 2591 4416 
Q 1844 4416 1459 3886 
Q 1075 3356 1075 2328 
Q 1075 1303 1459 773 
Q 1844 244 2591 244 
Q 3113 244 3450 492 
Q 3788 741 3938 1234 
L 4513 1234 
z
" transform="scale(0.015625)"/>
       <path id="DejaVuSerif-6d" d="M 3316 2675 
Q 3481 3041 3739 3227 
Q 3997 3413 4341 3413 
Q 4863 3413 5119 3089 
Q 5375 2766 5375 2113 
L 5375 331 
L 5894 331 
L 5894 0 
L 4300 0 
L 4300 331 
L 4800 331 
L 4800 2047 
Q 4800 2556 4650 2772 
Q 4500 2988 4153 2988 
Q 3769 2988 3567 2697 
Q 3366 2406 3366 1850 
L 3366 331 
L 3866 331 
L 3866 0 
L 2291 0 
L 2291 331 
L 2791 331 
L 2791 2069 
Q 2791 2566 2641 2777 
Q 2491 2988 2144 2988 
Q 1759 2988 1557 2697 
Q 1356 2406 1356 1850 
L 1356 331 
L 1856 331 
L 1856 0 
L 263 0 
L 263 331 
L 781 331 
L 781 2994 
L 231 2994 
L 231 3322 
L 1356 3322 
L 1356 2731 
Q 1516 3063 1762 3238 
Q 2009 3413 2322 3413 
Q 2709 3413 2968 3220 
Q 3228 3028 3316 2675 
z
" transform="scale(0.015625)"/>
       <path id="DejaVuSerif-73" d="M 359 184 
L 359 959 
L 691 959 
Q 703 588 923 403 
Q 1144 219 1575 219 
Q 1963 219 2166 364 
Q 2369 509 2369 788 
Q 2369 1006 2220 1140 
Q 2072 1275 1594 1428 
L 1178 1569 
Q 750 1706 558 1912 
Q 366 2119 366 2438 
Q 366 2894 700 3153 
Q 1034 3413 1625 3413 
Q 1888 3413 2178 3344 
Q 2469 3275 2778 3144 
L 2778 2419 
L 2447 2419 
Q 2434 2741 2221 2922 
Q 2009 3103 1644 3103 
Q 1281 3103 1095 2975 
Q 909 2847 909 2591 
Q 909 2381 1050 2254 
Q 1191 2128 1613 1997 
L 2069 1856 
Q 2541 1709 2748 1489 
Q 2956 1269 2956 922 
Q 2956 450 2595 179 
Q 2234 -91 1600 -91 
Q 1278 -91 972 -22 
Q 666 47 359 184 
z
" transform="scale(0.015625)"/>
       <path id="DejaVuSerif-69" d="M 622 4353 
Q 622 4497 726 4603 
Q 831 4709 978 4709 
Q 1122 4709 1226 4603 
Q 1331 4497 1331 4353 
Q 1331 4206 1228 4103 
Q 1125 4000 978 4000 
Q 831 4000 726 4103 
Q 622 4206 622 4353 
z
M 1356 331 
L 1900 331 
L 1900 0 
L 231 0 
L 231 331 
L 781 331 
L 781 2988 
L 231 2988 
L 231 3322 
L 1356 3322 
L 1356 331 
z
" transform="scale(0.015625)"/>
       <path id="DejaVuSerif-52" d="M 3066 2316 
Q 3284 2256 3442 2114 
Q 3600 1972 3725 1716 
L 4403 331 
L 4972 331 
L 4972 0 
L 3872 0 
L 3144 1484 
Q 2934 1916 2759 2042 
Q 2584 2169 2278 2169 
L 1581 2169 
L 1581 331 
L 2241 331 
L 2241 0 
L 353 0 
L 353 331 
L 947 331 
L 947 4331 
L 353 4331 
L 353 4666 
L 2719 4666 
Q 3400 4666 3770 4341 
Q 4141 4016 4141 3419 
Q 4141 2938 3870 2661 
Q 3600 2384 3066 2316 
z
M 1581 2503 
L 2503 2503 
Q 2975 2503 3200 2726 
Q 3425 2950 3425 3419 
Q 3425 3888 3200 4109 
Q 2975 4331 2503 4331 
L 1581 4331 
L 1581 2503 
z
" transform="scale(0.015625)"/>
       <path id="DejaVuSerif-61" d="M 2547 1044 
L 2547 1747 
L 1806 1747 
Q 1378 1747 1168 1562 
Q 959 1378 959 997 
Q 959 650 1171 447 
Q 1384 244 1747 244 
Q 2106 244 2326 466 
Q 2547 688 2547 1044 
z
M 3122 2075 
L 3122 331 
L 3634 331 
L 3634 0 
L 2547 0 
L 2547 359 
Q 2356 128 2106 18 
Q 1856 -91 1522 -91 
Q 969 -91 644 203 
Q 319 497 319 997 
Q 319 1513 691 1797 
Q 1063 2081 1741 2081 
L 2547 2081 
L 2547 2309 
Q 2547 2688 2317 2895 
Q 2088 3103 1672 3103 
Q 1328 3103 1125 2947 
Q 922 2791 872 2484 
L 575 2484 
L 575 3156 
Q 875 3284 1158 3348 
Q 1441 3413 1709 3413 
Q 2400 3413 2761 3070 
Q 3122 2728 3122 2075 
z
" transform="scale(0.015625)"/>
       <path id="DejaVuSerif-74" d="M 691 2988 
L 184 2988 
L 184 3322 
L 691 3322 
L 691 4353 
L 1269 4353 
L 1269 3322 
L 2350 3322 
L 2350 2988 
L 1269 2988 
L 1269 878 
Q 1269 456 1350 337 
Q 1431 219 1650 219 
Q 1875 219 1978 351 
Q 2081 484 2088 781 
L 2522 781 
Q 2497 328 2275 118 
Q 2053 -91 1600 -91 
Q 1103 -91 897 129 
Q 691 350 691 878 
L 691 2988 
z
" transform="scale(0.015625)"/>
      </defs>
      <use xlink:href="#DejaVuSerif-50"/>
      <use xlink:href="#DejaVuSerif-65" transform="translate(62.785156 0)"/>
      <use xlink:href="#DejaVuSerif-72" transform="translate(121.964844 0)"/>
      <use xlink:href="#DejaVuSerif-20" transform="translate(169.767578 0)"/>
      <use xlink:href="#DejaVuSerif-57" transform="translate(201.554688 0)"/>
      <use xlink:href="#DejaVuSerif-6f" transform="translate(297.587891 0)"/>
      <use xlink:href="#DejaVuSerif-72" transform="translate(357.792969 0)"/>
      <use xlink:href="#DejaVuSerif-64" transform="translate(405.595703 0)"/>
      <use xlink:href="#DejaVuSerif-20" transform="translate(469.609375 0)"/>
      <use xlink:href="#DejaVuSerif-43" transform="translate(501.396484 0)"/>
      <use xlink:href="#DejaVuSerif-6f" transform="translate(577.910156 0)"/>
      <use xlink:href="#DejaVuSerif-6d" transform="translate(638.115234 0)"/>
      <use xlink:href="#DejaVuSerif-70" transform="translate(732.939453 0)"/>
      <use xlink:href="#DejaVuSerif-72" transform="translate(796.953125 0)"/>
      <use xlink:href="#DejaVuSerif-65" transform="translate(844.755859 0)"/>
      <use xlink:href="#DejaVuSerif-73" transform="translate(903.935547 0)"/>
      <use xlink:href="#DejaVuSerif-73" transform="translate(955.253906 0)"/>
      <use xlink:href="#DejaVuSerif-69" transform="translate(1006.572266 0)"/>
      <use xlink:href="#DejaVuSerif-6f" transform="translate(1038.554688 0)"/>
      <use xlink:href="#DejaVuSerif-6e" transform="translate(1098.759766 0)"/>
      <use xlink:href="#DejaVuSerif-20" transform="translate(1163.164062 0)"/>
      <use xlink:href="#DejaVuSerif-52" transform="translate(1194.951172 0)"/>
      <use xlink:href="#DejaVuSerif-61" transform="translate(1272.494141 0)"/>
      <use xlink:href="#DejaVuSerif-74" transform="translate(1332.113281 0)"/>
      <use xlink:href="#DejaVuSerif-65" transform="translate(1372.298828 0)"/>
     </g>
    </g>
   </g>
   <g id="line2d_25">
    <path d="M 71.298125 105.50731 
L 740.898125 105.50731 
" clip-path="url(#pa442c6b809)" style="fill: none; stroke-dasharray: 5.55,2.4; stroke-dashoffset: 0; stroke: #ff0000; stroke-opacity: 0.7; stroke-width: 1.5"/>
   </g>
   <g id="patch_21">
    <path d="M 71.298125 365.595937 
L 71.298125 32.955938 
" style="fill: none; stroke: #000000; stroke-width: 0.8; stroke-linejoin: miter; stroke-linecap: square"/>
   </g>
   <g id="patch_22">
    <path d="M 740.898125 365.595937 
L 740.898125 32.955938 
" style="fill: none; stroke: #000000; stroke-width: 0.8; stroke-linejoin: miter; stroke-linecap: square"/>
   </g>
   <g id="patch_23">
    <path d="M 71.298125 365.595937 
L 740.898125 365.595937 
" style="fill: none; stroke: #000000; stroke-width: 0.8; stroke-linejoin: miter; stroke-linecap: square"/>
   </g>
   <g id="patch_24">
    <path d="M 71.298125 32.955938 
L 740.898125 32.955938 
" style="fill: none; stroke: #000000; stroke-width: 0.8; stroke-linejoin: miter; stroke-linecap: square"/>
   </g>
   <g id="text_26">
    <!-- Compression Rate Comparison -->
    <g transform="translate(201.638594 26.955938) scale(0.26 -0.26)">
     <use xlink:href="#DejaVuSerif-43"/>
     <use xlink:href="#DejaVuSerif-6f" transform="translate(76.513672 0)"/>
     <use xlink:href="#DejaVuSerif-6d" transform="translate(136.71875 0)"/>
     <use xlink:href="#DejaVuSerif-70" transform="translate(231.542969 0)"/>
     <use xlink:href="#DejaVuSerif-72" transform="translate(295.556641 0)"/>
     <use xlink:href="#DejaVuSerif-65" transform="translate(343.359375 0)"/>
     <use xlink:href="#DejaVuSerif-73" transform="translate(402.539062 0)"/>
     <use xlink:href="#DejaVuSerif-73" transform="translate(453.857422 0)"/>
     <use xlink:href="#DejaVuSerif-69" transform="translate(505.175781 0)"/>
     <use xlink:href="#DejaVuSerif-6f" transform="translate(537.158203 0)"/>
     <use xlink:href="#DejaVuSerif-6e" transform="translate(597.363281 0)"/>
     <use xlink:href="#DejaVuSerif-20" transform="translate(661.767578 0)"/>
     <use xlink:href="#DejaVuSerif-52" transform="translate(693.554688 0)"/>
     <use xlink:href="#DejaVuSerif-61" transform="translate(771.097656 0)"/>
     <use xlink:href="#DejaVuSerif-74" transform="translate(830.716797 0)"/>
     <use xlink:href="#DejaVuSerif-65" transform="translate(870.902344 0)"/>
     <use xlink:href="#DejaVuSerif-20" transform="translate(930.082031 0)"/>
     <use xlink:href="#DejaVuSerif-43" transform="translate(961.869141 0)"/>
     <use xlink:href="#DejaVuSerif-6f" transform="translate(1038.382812 0)"/>
     <use xlink:href="#DejaVuSerif-6d" transform="translate(1098.587891 0)"/>
     <use xlink:href="#DejaVuSerif-70" transform="translate(1193.412109 0)"/>
     <use xlink:href="#DejaVuSerif-61" transform="translate(1257.425781 0)"/>
     <use xlink:href="#DejaVuSerif-72" transform="translate(1317.044922 0)"/>
     <use xlink:href="#DejaVuSerif-69" transform="translate(1364.847656 0)"/>
     <use xlink:href="#DejaVuSerif-73" transform="translate(1396.830078 0)"/>
     <use xlink:href="#DejaVuSerif-6f" transform="translate(1448.148438 0)"/>
     <use xlink:href="#DejaVuSerif-6e" transform="translate(1508.353516 0)"/>
    </g>
   </g>
   <g id="legend_1">
    <g id="patch_25">
     <path d="M 81.098125 64.904375 
L 274.597813 64.904375 
Q 277.397813 64.904375 277.397813 62.104375 
L 277.397813 42.755937 
Q 277.397813 39.955937 274.597813 39.955937 
L 81.098125 39.955937 
Q 78.298125 39.955937 78.298125 42.755937 
L 78.298125 62.104375 
Q 78.298125 64.904375 81.098125 64.904375 
z
" style="fill: #ffffff; opacity: 0.8; stroke: #cccccc; stroke-linejoin: miter"/>
    </g>
    <g id="line2d_26">
     <path d="M 83.898125 51.29375 
L 97.898125 51.29375 
L 111.898125 51.29375 
" style="fill: none; stroke-dasharray: 5.55,2.4; stroke-dashoffset: 0; stroke: #ff0000; stroke-opacity: 0.7; stroke-width: 1.5"/>
    </g>
    <g id="text_27">
     <!-- Global Average: 0.80 -->
     <g transform="translate(123.098125 56.19375) scale(0.14 -0.14)">
      <defs>
       <path id="DejaVuSerif-47" d="M 4097 3272 
Q 3988 3856 3641 4136 
Q 3294 4416 2675 4416 
Q 1869 4416 1472 3897 
Q 1075 3378 1075 2328 
Q 1075 1300 1484 772 
Q 1894 244 2688 244 
Q 3041 244 3362 331 
Q 3684 419 3975 594 
L 3975 1797 
L 3097 1797 
L 3097 2131 
L 4609 2131 
L 4609 391 
Q 4194 150 3714 29 
Q 3234 -91 2688 -91 
Q 1631 -91 995 570 
Q 359 1231 359 2328 
Q 359 3434 996 4092 
Q 1634 4750 2713 4750 
Q 3113 4750 3539 4658 
Q 3966 4566 4447 4378 
L 4447 3272 
L 4097 3272 
z
" transform="scale(0.015625)"/>
       <path id="DejaVuSerif-6c" d="M 1313 331 
L 1856 331 
L 1856 0 
L 184 0 
L 184 331 
L 738 331 
L 738 4531 
L 184 4531 
L 184 4863 
L 1313 4863 
L 1313 331 
z
" transform="scale(0.015625)"/>
       <path id="DejaVuSerif-41" d="M 1281 1691 
L 2994 1691 
L 2138 3909 
L 1281 1691 
z
M -38 0 
L -38 331 
L 372 331 
L 2034 4666 
L 2559 4666 
L 4225 331 
L 4684 331 
L 4684 0 
L 2988 0 
L 2988 331 
L 3506 331 
L 3116 1356 
L 1153 1356 
L 763 331 
L 1275 331 
L 1275 0 
L -38 0 
z
" transform="scale(0.015625)"/>
       <path id="DejaVuSerif-76" d="M 1581 0 
L 359 2988 
L -19 2988 
L -19 3322 
L 1509 3322 
L 1509 2988 
L 978 2988 
L 1913 703 
L 2847 2988 
L 2350 2988 
L 2350 3322 
L 3597 3322 
L 3597 2988 
L 3225 2988 
L 2003 0 
L 1581 0 
z
" transform="scale(0.015625)"/>
       <path id="DejaVuSerif-67" d="M 3359 2988 
L 3359 72 
Q 3359 -644 2965 -1033 
Q 2572 -1422 1844 -1422 
Q 1516 -1422 1216 -1362 
Q 916 -1303 641 -1184 
L 641 -488 
L 941 -488 
Q 997 -813 1206 -963 
Q 1416 -1113 1806 -1113 
Q 2313 -1113 2548 -827 
Q 2784 -541 2784 72 
L 2784 519 
Q 2616 206 2355 57 
Q 2094 -91 1709 -91 
Q 1097 -91 708 395 
Q 319 881 319 1663 
Q 319 2444 706 2928 
Q 1094 3413 1709 3413 
Q 2094 3413 2355 3264 
Q 2616 3116 2784 2803 
L 2784 3322 
L 3909 3322 
L 3909 2988 
L 3359 2988 
z
M 2784 1825 
Q 2784 2422 2554 2737 
Q 2325 3053 1888 3053 
Q 1444 3053 1217 2703 
Q 991 2353 991 1663 
Q 991 975 1217 622 
Q 1444 269 1888 269 
Q 2325 269 2554 583 
Q 2784 897 2784 1497 
L 2784 1825 
z
" transform="scale(0.015625)"/>
       <path id="DejaVuSerif-3a" d="M 666 325 
Q 666 500 786 622 
Q 906 744 1081 744 
Q 1256 744 1376 622 
Q 1497 500 1497 325 
Q 1497 150 1378 29 
Q 1259 -91 1081 -91 
Q 903 -91 784 29 
Q 666 150 666 325 
z
M 666 2363 
Q 666 2538 786 2658 
Q 906 2778 1081 2778 
Q 1259 2778 1378 2659 
Q 1497 2541 1497 2363 
Q 1497 2184 1378 2065 
Q 1259 1947 1081 1947 
Q 906 1947 786 2067 
Q 666 2188 666 2363 
z
" transform="scale(0.015625)"/>
      </defs>
      <use xlink:href="#DejaVuSerif-47"/>
      <use xlink:href="#DejaVuSerif-6c" transform="translate(79.882812 0)"/>
      <use xlink:href="#DejaVuSerif-6f" transform="translate(111.865234 0)"/>
      <use xlink:href="#DejaVuSerif-62" transform="translate(172.070312 0)"/>
      <use xlink:href="#DejaVuSerif-61" transform="translate(236.083984 0)"/>
      <use xlink:href="#DejaVuSerif-6c" transform="translate(295.703125 0)"/>
      <use xlink:href="#DejaVuSerif-20" transform="translate(327.685547 0)"/>
      <use xlink:href="#DejaVuSerif-41" transform="translate(359.472656 0)"/>
      <use xlink:href="#DejaVuSerif-76" transform="translate(427.689453 0)"/>
      <use xlink:href="#DejaVuSerif-65" transform="translate(484.183594 0)"/>
      <use xlink:href="#DejaVuSerif-72" transform="translate(543.363281 0)"/>
      <use xlink:href="#DejaVuSerif-61" transform="translate(591.166016 0)"/>
      <use xlink:href="#DejaVuSerif-67" transform="translate(650.785156 0)"/>
      <use xlink:href="#DejaVuSerif-65" transform="translate(714.798828 0)"/>
      <use xlink:href="#DejaVuSerif-3a" transform="translate(773.978516 0)"/>
      <use xlink:href="#DejaVuSerif-20" transform="translate(807.669922 0)"/>
      <use xlink:href="#DejaVuSerif-30" transform="translate(839.457031 0)"/>
      <use xlink:href="#DejaVuSerif-2e" transform="translate(903.080078 0)"/>
      <use xlink:href="#DejaVuSerif-38" transform="translate(934.867188 0)"/>
      <use xlink:href="#DejaVuSerif-30" transform="translate(998.490234 0)"/>
     </g>
    </g>
   </g>
  </g>
 </g>
 <defs>
  <clipPath id="pa442c6b809">
   <rect x="71.298125" y="32.955938" width="669.6" height="332.64"/>
  </clipPath>
 </defs>
</svg>
